<svg width="53" height="53" viewBox="0 0 53 53" fill="none" xmlns="http://www.w3.org/2000/svg">
<path d="M0.209473 33.1603C1.96414 33.0793 3.44886 32.4044 4.66364 31.1357C5.87841 29.8669 6.49929 28.3552 6.49929 26.6005C6.49929 28.3552 7.09318 29.8669 8.30795 31.1357C9.52272 32.4044 11.0074 33.0793 12.7621 33.1603C11.0074 33.2413 9.52272 33.9162 8.30795 35.1849C7.72064 35.783 7.25826 36.4921 6.94774 37.2707C6.63722 38.0493 6.48477 38.8819 6.49929 39.7201C6.49929 37.9654 5.9054 36.4537 4.66364 35.1849C3.44886 33.9162 1.96414 33.2413 0.209473 33.1603ZM6.49929 13.724C9.90065 13.562 12.7891 12.2392 15.1647 9.7557C17.5402 7.27217 18.728 4.32972 18.728 0.901367C18.728 4.32972 19.9158 7.27217 22.2913 9.7557C24.6669 12.2392 27.5553 13.535 30.9837 13.724C28.7431 13.8319 26.6915 14.4528 24.8019 15.6406C22.9392 16.8014 21.4545 18.3671 20.3477 20.3107C19.2679 22.2544 18.728 24.333 18.728 26.6005C18.728 23.1722 17.5402 20.2027 15.1647 17.7192C12.7891 15.2087 9.90065 13.8859 6.49929 13.724ZM15.4616 42.7975C18.0261 42.6895 20.2127 41.6907 21.9944 39.8281C23.776 37.9654 24.6669 35.7518 24.6669 33.1603C24.6669 35.7518 25.5577 37.9654 27.3394 39.8281C29.121 41.6907 31.2806 42.6895 33.8452 42.7975C31.2806 42.9055 29.121 43.9043 27.3394 45.7669C25.5577 47.6296 24.6669 49.8432 24.6669 52.4347C24.6669 49.8432 23.776 47.6296 21.9944 45.7669C20.2915 43.9572 17.9448 42.8905 15.4616 42.7975ZM33.8452 30.0019C36.4097 29.8939 38.5693 28.8951 40.3509 27.0325C42.1326 25.1698 42.9964 22.9562 42.9964 20.3377C42.9964 22.9292 43.8873 25.1428 45.6689 27.0055C47.4506 28.8681 49.6372 29.8669 52.2017 29.9749C49.6372 30.0829 47.4506 31.0817 45.6689 32.9443C43.8873 34.807 42.9964 37.0206 42.9964 39.6121C42.9964 37.0206 42.1056 34.807 40.3509 32.9443C38.5693 31.1087 36.4097 30.1099 33.8452 30.0019Z" fill="white"/>
</svg>
